<svg xmlns="http://www.w3.org/2000/svg" xmlns:xlink="http://www.w3.org/1999/xlink" width="1080" zoomAndPan="magnify" viewBox="0 0 810 809.999993" height="1080" preserveAspectRatio="xMidYMid meet" version="1.0"><rect x="-81" width="972" fill="#ffffff" y="-80.999999" height="971.999992" fill-opacity="1"/><rect x="-81" width="972" fill="#ffffff" y="-80.999999" height="971.999992" fill-opacity="1"/><path fill="#596b93" d="M 436.027344 427.523438 C 460.4375 410.386719 466.332031 376.710938 449.195312 352.300781 C 432.058594 327.890625 398.382812 321.996094 373.972656 339.132812 C 349.5625 356.269531 343.667969 389.945312 360.804688 414.355469 C 364.398438 419.472656 368.855469 423.929688 373.972656 427.523438 C 345.140625 432.480469 324.050781 457.460938 324 486.71875 L 324 561.601562 C 324 564.582031 326.414062 567 329.398438 567 L 480.601562 567 C 483.582031 567 486 564.585938 486 561.601562 L 486 486.71875 C 485.949219 457.460938 464.859375 432.480469 436.027344 427.523438 Z M 361.800781 383.398438 C 361.800781 359.542969 381.140625 340.199219 405 340.199219 C 428.859375 340.199219 448.199219 359.542969 448.199219 383.398438 C 448.199219 407.257812 428.859375 426.601562 405 426.601562 C 381.152344 426.574219 361.828125 407.246094 361.800781 383.398438 Z M 475.199219 556.199219 L 334.800781 556.199219 L 334.800781 486.71875 C 334.832031 459.492188 356.894531 437.429688 384.117188 437.398438 L 425.882812 437.398438 C 453.105469 437.429688 475.167969 459.492188 475.199219 486.71875 Z M 475.199219 556.199219 " fill-opacity="1" fill-rule="nonzero"/><path fill="#596b93" d="M 399.601562 275.398438 L 410.398438 275.398438 L 410.398438 297 L 399.601562 297 Z M 399.601562 275.398438 " fill-opacity="1" fill-rule="nonzero"/><path fill="#596b93" d="M 452.945312 303.972656 L 468.21875 288.699219 L 475.855469 296.335938 L 460.582031 311.609375 Z M 452.945312 303.972656 " fill-opacity="1" fill-rule="nonzero"/><path fill="#596b93" d="M 518.398438 556.199219 L 540 556.199219 L 540 567 L 518.398438 567 Z M 518.398438 556.199219 " fill-opacity="1" fill-rule="nonzero"/><path fill="#596b93" d="M 518.398438 502.199219 L 540 502.199219 L 540 513 L 518.398438 513 Z M 518.398438 502.199219 " fill-opacity="1" fill-rule="nonzero"/><path fill="#596b93" d="M 518.398438 448.199219 L 540 448.199219 L 540 459 L 518.398438 459 Z M 518.398438 448.199219 " fill-opacity="1" fill-rule="nonzero"/><path fill="#596b93" d="M 511.859375 397.882812 L 532.351562 391.050781 L 535.765625 401.292969 L 515.277344 408.128906 Z M 511.859375 397.882812 " fill-opacity="1" fill-rule="nonzero"/><path fill="#596b93" d="M 495.082031 341.886719 L 515.574219 335.050781 L 518.988281 345.296875 L 498.5 352.128906 Z M 495.082031 341.886719 " fill-opacity="1" fill-rule="nonzero"/><path fill="#596b93" d="M 334.148438 296.347656 L 341.785156 288.710938 L 357.058594 303.988281 L 349.421875 311.625 Z M 334.148438 296.347656 " fill-opacity="1" fill-rule="nonzero"/><path fill="#596b93" d="M 270 556.199219 L 291.601562 556.199219 L 291.601562 567 L 270 567 Z M 270 556.199219 " fill-opacity="1" fill-rule="nonzero"/><path fill="#596b93" d="M 270 502.199219 L 291.601562 502.199219 L 291.601562 513 L 270 513 Z M 270 502.199219 " fill-opacity="1" fill-rule="nonzero"/><path fill="#596b93" d="M 270 448.199219 L 291.601562 448.199219 L 291.601562 459 L 270 459 Z M 270 448.199219 " fill-opacity="1" fill-rule="nonzero"/><path fill="#596b93" d="M 274.246094 401.300781 L 277.660156 391.054688 L 298.152344 397.882812 L 294.738281 408.128906 Z M 274.246094 401.300781 " fill-opacity="1" fill-rule="nonzero"/><path fill="#596b93" d="M 290.996094 345.335938 L 294.414062 335.089844 L 314.90625 341.921875 L 311.488281 352.167969 Z M 290.996094 345.335938 " fill-opacity="1" fill-rule="nonzero"/><path fill="#596b93" d="M 561.601562 264.601562 C 552.65625 264.589844 545.410156 257.34375 545.398438 248.398438 C 545.398438 245.417969 542.980469 243 540 243 C 537.019531 243 534.601562 245.417969 534.601562 248.398438 C 534.589844 257.34375 527.34375 264.589844 518.398438 264.601562 C 515.417969 264.601562 513 267.019531 513 270 C 513 272.980469 515.417969 275.398438 518.398438 275.398438 C 527.34375 275.410156 534.589844 282.65625 534.601562 291.601562 C 534.601562 294.582031 537.019531 297 540 297 C 542.980469 297 545.398438 294.582031 545.398438 291.601562 C 545.410156 282.65625 552.65625 275.410156 561.601562 275.398438 C 564.582031 275.398438 567 272.980469 567 270 C 567 267.019531 564.582031 264.601562 561.601562 264.601562 Z M 540 275.414062 C 538.457031 273.363281 536.636719 271.542969 534.585938 270 C 536.636719 268.457031 538.457031 266.636719 540 264.585938 C 541.539062 266.636719 543.363281 268.457031 545.414062 270 C 543.363281 271.542969 541.539062 273.363281 540 275.414062 Z M 540 275.414062 " fill-opacity="1" fill-rule="nonzero"/><path fill="#596b93" d="M 291.601562 264.601562 C 282.65625 264.589844 275.410156 257.34375 275.398438 248.398438 C 275.398438 245.417969 272.980469 243 270 243 C 267.019531 243 264.601562 245.417969 264.601562 248.398438 C 264.589844 257.34375 257.34375 264.589844 248.398438 264.601562 C 245.417969 264.601562 243 267.019531 243 270 C 243 272.980469 245.417969 275.398438 248.398438 275.398438 C 257.34375 275.410156 264.589844 282.65625 264.601562 291.601562 C 264.601562 294.582031 267.019531 297 270 297 C 272.980469 297 275.398438 294.582031 275.398438 291.601562 C 275.410156 282.65625 282.65625 275.410156 291.601562 275.398438 C 294.582031 275.398438 297 272.980469 297 270 C 297 267.019531 294.582031 264.601562 291.601562 264.601562 Z M 270 275.414062 C 268.457031 273.363281 266.636719 271.542969 264.585938 270 C 266.636719 268.457031 268.457031 266.636719 270 264.585938 C 271.539062 266.636719 273.363281 268.457031 275.414062 270 C 273.363281 271.542969 271.539062 273.363281 270 275.414062 Z M 270 275.414062 " fill-opacity="1" fill-rule="nonzero"/></svg>