<svg xmlns="http://www.w3.org/2000/svg" xmlns:xlink="http://www.w3.org/1999/xlink" width="1080" zoomAndPan="magnify" viewBox="0 0 810 809.999993" height="1080" preserveAspectRatio="xMidYMid meet" version="1.0"><rect x="-81" width="972" fill="#ffffff" y="-80.999999" height="971.999992" fill-opacity="1"/><rect x="-81" width="972" fill="#ffffff" y="-80.999999" height="971.999992" fill-opacity="1"/><path fill="#596b93" d="M 516.375 313.875 C 516.375 313.542969 516.34375 313.214844 516.277344 312.886719 C 516.210938 312.5625 516.117188 312.246094 515.988281 311.9375 C 515.863281 311.628906 515.707031 311.339844 515.523438 311.0625 C 515.335938 310.785156 515.128906 310.53125 514.890625 310.296875 C 514.65625 310.058594 514.402344 309.851562 514.125 309.664062 C 513.847656 309.480469 513.558594 309.324219 513.25 309.199219 C 512.941406 309.070312 512.625 308.976562 512.300781 308.910156 C 511.972656 308.84375 511.644531 308.8125 511.3125 308.8125 L 480.9375 308.8125 C 480.605469 308.8125 480.277344 308.84375 479.949219 308.910156 C 479.625 308.976562 479.308594 309.070312 479 309.199219 C 478.691406 309.324219 478.402344 309.480469 478.125 309.664062 C 477.847656 309.851562 477.59375 310.058594 477.359375 310.296875 C 477.121094 310.53125 476.914062 310.785156 476.726562 311.0625 C 476.542969 311.339844 476.386719 311.628906 476.261719 311.9375 C 476.132812 312.246094 476.035156 312.5625 475.972656 312.886719 C 475.90625 313.214844 475.875 313.542969 475.875 313.875 L 475.875 430.3125 L 455.625 430.3125 L 455.625 374.625 C 455.625 374.292969 455.59375 373.964844 455.527344 373.636719 C 455.460938 373.3125 455.367188 372.996094 455.238281 372.6875 C 455.113281 372.378906 454.957031 372.089844 454.773438 371.8125 C 454.585938 371.535156 454.378906 371.28125 454.140625 371.046875 C 453.90625 370.808594 453.652344 370.601562 453.375 370.414062 C 453.097656 370.230469 452.808594 370.074219 452.5 369.949219 C 452.191406 369.820312 451.875 369.726562 451.550781 369.660156 C 451.222656 369.59375 450.894531 369.5625 450.5625 369.5625 L 420.1875 369.5625 C 419.855469 369.5625 419.527344 369.59375 419.199219 369.660156 C 418.875 369.726562 418.558594 369.820312 418.25 369.949219 C 417.941406 370.074219 417.652344 370.230469 417.375 370.414062 C 417.097656 370.601562 416.84375 370.808594 416.609375 371.046875 C 416.371094 371.28125 416.164062 371.535156 415.976562 371.8125 C 415.792969 372.089844 415.636719 372.378906 415.511719 372.6875 C 415.382812 372.996094 415.285156 373.3125 415.222656 373.636719 C 415.15625 373.964844 415.125 374.292969 415.125 374.625 L 415.125 430.3125 L 394.875 430.3125 L 394.875 334.125 C 394.875 333.792969 394.84375 333.464844 394.777344 333.136719 C 394.710938 332.8125 394.617188 332.496094 394.488281 332.1875 C 394.363281 331.878906 394.207031 331.589844 394.023438 331.3125 C 393.835938 331.035156 393.628906 330.78125 393.390625 330.546875 C 393.15625 330.308594 392.902344 330.101562 392.625 329.914062 C 392.347656 329.730469 392.058594 329.574219 391.75 329.449219 C 391.441406 329.320312 391.125 329.226562 390.800781 329.160156 C 390.472656 329.09375 390.144531 329.0625 389.8125 329.0625 L 359.4375 329.0625 C 359.105469 329.0625 358.777344 329.09375 358.449219 329.160156 C 358.125 329.226562 357.808594 329.320312 357.5 329.449219 C 357.191406 329.574219 356.902344 329.730469 356.625 329.914062 C 356.347656 330.101562 356.09375 330.308594 355.859375 330.546875 C 355.621094 330.78125 355.414062 331.035156 355.226562 331.3125 C 355.042969 331.589844 354.886719 331.878906 354.761719 332.1875 C 354.632812 332.496094 354.535156 332.8125 354.472656 333.136719 C 354.40625 333.464844 354.375 333.792969 354.375 334.125 L 354.375 430.3125 L 334.125 430.3125 L 334.125 359.4375 C 334.125 359.105469 334.09375 358.777344 334.027344 358.449219 C 333.960938 358.125 333.867188 357.808594 333.738281 357.5 C 333.613281 357.191406 333.457031 356.902344 333.273438 356.625 C 333.085938 356.347656 332.878906 356.09375 332.640625 355.859375 C 332.40625 355.621094 332.152344 355.414062 331.875 355.226562 C 331.597656 355.042969 331.308594 354.886719 331 354.761719 C 330.691406 354.632812 330.375 354.539062 330.050781 354.472656 C 329.722656 354.40625 329.394531 354.375 329.0625 354.375 L 298.6875 354.375 C 298.355469 354.375 298.027344 354.40625 297.699219 354.472656 C 297.375 354.539062 297.058594 354.632812 296.75 354.761719 C 296.441406 354.886719 296.152344 355.042969 295.875 355.226562 C 295.597656 355.414062 295.34375 355.621094 295.109375 355.859375 C 294.871094 356.09375 294.664062 356.347656 294.476562 356.625 C 294.292969 356.902344 294.136719 357.191406 294.011719 357.5 C 293.882812 357.808594 293.789062 358.125 293.722656 358.449219 C 293.65625 358.777344 293.625 359.105469 293.625 359.4375 L 293.625 430.3125 L 248.0625 430.3125 L 248.0625 440.4375 L 278.4375 440.4375 L 278.4375 460.6875 C 278.4375 461.019531 278.46875 461.347656 278.535156 461.675781 C 278.597656 462 278.695312 462.316406 278.824219 462.625 C 278.949219 462.933594 279.105469 463.222656 279.289062 463.5 C 279.476562 463.777344 279.683594 464.03125 279.921875 464.265625 C 280.15625 464.503906 280.410156 464.710938 280.6875 464.898438 C 280.964844 465.082031 281.253906 465.238281 281.5625 465.363281 C 281.871094 465.492188 282.1875 465.585938 282.511719 465.652344 C 282.839844 465.71875 283.167969 465.75 283.5 465.75 L 297.949219 465.75 C 300.308594 474.082031 303.601562 482.03125 307.832031 489.589844 L 297.609375 499.808594 C 297.375 500.046875 297.164062 500.300781 296.980469 500.578125 C 296.796875 500.855469 296.640625 501.144531 296.511719 501.453125 C 296.386719 501.757812 296.289062 502.078125 296.222656 502.402344 C 296.160156 502.726562 296.125 503.058594 296.125 503.390625 C 296.125 503.722656 296.160156 504.050781 296.222656 504.378906 C 296.289062 504.703125 296.386719 505.019531 296.511719 505.328125 C 296.640625 505.632812 296.796875 505.925781 296.980469 506.203125 C 297.164062 506.476562 297.375 506.734375 297.609375 506.96875 L 333.40625 542.765625 C 333.640625 543 333.898438 543.210938 334.171875 543.394531 C 334.449219 543.578125 334.742188 543.734375 335.046875 543.863281 C 335.355469 543.988281 335.671875 544.085938 335.996094 544.152344 C 336.324219 544.214844 336.652344 544.246094 336.984375 544.246094 C 337.316406 544.246094 337.648438 544.214844 337.972656 544.152344 C 338.296875 544.085938 338.613281 543.988281 338.921875 543.863281 C 339.230469 543.734375 339.519531 543.578125 339.796875 543.394531 C 340.074219 543.210938 340.328125 543 340.566406 542.765625 L 350.785156 532.542969 C 358.34375 536.773438 366.289062 540.066406 374.625 542.425781 L 374.625 556.875 C 374.625 557.207031 374.65625 557.535156 374.722656 557.863281 C 374.785156 558.1875 374.882812 558.503906 375.011719 558.8125 C 375.136719 559.121094 375.292969 559.410156 375.476562 559.6875 C 375.664062 559.964844 375.871094 560.21875 376.109375 560.453125 C 376.34375 560.691406 376.597656 560.898438 376.875 561.085938 C 377.152344 561.269531 377.441406 561.425781 377.75 561.550781 C 378.058594 561.679688 378.375 561.773438 378.699219 561.839844 C 379.027344 561.90625 379.355469 561.9375 379.6875 561.9375 L 430.3125 561.9375 C 430.644531 561.9375 430.972656 561.90625 431.300781 561.839844 C 431.625 561.773438 431.941406 561.679688 432.25 561.550781 C 432.558594 561.425781 432.847656 561.269531 433.125 561.085938 C 433.402344 560.898438 433.65625 560.691406 433.890625 560.453125 C 434.128906 560.21875 434.335938 559.964844 434.523438 559.6875 C 434.707031 559.410156 434.863281 559.121094 434.988281 558.8125 C 435.117188 558.503906 435.210938 558.1875 435.277344 557.863281 C 435.34375 557.535156 435.375 557.207031 435.375 556.875 L 435.375 542.425781 C 443.710938 540.066406 451.65625 536.773438 459.214844 532.542969 L 469.433594 542.765625 C 469.671875 543 469.925781 543.210938 470.203125 543.394531 C 470.480469 543.578125 470.769531 543.734375 471.078125 543.863281 C 471.382812 543.988281 471.703125 544.085938 472.027344 544.152344 C 472.351562 544.214844 472.683594 544.246094 473.015625 544.246094 C 473.347656 544.246094 473.675781 544.214844 474.003906 544.152344 C 474.328125 544.085938 474.644531 543.988281 474.953125 543.863281 C 475.257812 543.734375 475.550781 543.578125 475.828125 543.394531 C 476.101562 543.210938 476.359375 543 476.59375 542.765625 L 512.390625 506.96875 C 512.625 506.734375 512.835938 506.476562 513.019531 506.203125 C 513.203125 505.925781 513.359375 505.632812 513.488281 505.328125 C 513.613281 505.019531 513.710938 504.703125 513.777344 504.378906 C 513.839844 504.050781 513.871094 503.722656 513.871094 503.390625 C 513.871094 503.058594 513.839844 502.726562 513.777344 502.402344 C 513.710938 502.078125 513.613281 501.757812 513.488281 501.453125 C 513.359375 501.144531 513.203125 500.855469 513.019531 500.578125 C 512.835938 500.300781 512.625 500.046875 512.390625 499.808594 L 502.167969 489.589844 C 506.398438 482.03125 509.691406 474.082031 512.050781 465.75 L 526.5 465.75 C 526.832031 465.75 527.160156 465.71875 527.488281 465.652344 C 527.8125 465.585938 528.128906 465.492188 528.4375 465.363281 C 528.746094 465.238281 529.035156 465.082031 529.3125 464.898438 C 529.589844 464.710938 529.84375 464.503906 530.078125 464.265625 C 530.316406 464.03125 530.523438 463.777344 530.710938 463.5 C 530.894531 463.222656 531.050781 462.933594 531.175781 462.625 C 531.304688 462.316406 531.398438 462 531.464844 461.675781 C 531.53125 461.347656 531.5625 461.019531 531.5625 460.6875 L 531.5625 440.4375 L 561.9375 440.4375 L 561.9375 430.3125 L 516.375 430.3125 Z M 486 318.9375 L 506.25 318.9375 L 506.25 430.3125 L 486 430.3125 Z M 470.554688 440.4375 C 470.398438 442.480469 470.148438 444.511719 469.804688 446.535156 C 469.460938 448.554688 469.023438 450.554688 468.492188 452.535156 C 467.960938 454.511719 467.335938 456.464844 466.621094 458.382812 C 465.90625 460.304688 465.105469 462.191406 464.214844 464.035156 C 463.324219 465.882812 462.351562 467.683594 461.292969 469.4375 C 460.234375 471.191406 459.09375 472.894531 457.878906 474.542969 C 456.660156 476.191406 455.367188 477.78125 454 479.308594 C 452.632812 480.835938 451.199219 482.296875 449.695312 483.691406 C 448.195312 485.082031 446.628906 486.402344 445.003906 487.652344 C 443.375 488.898438 441.695312 490.066406 439.960938 491.15625 C 438.222656 492.246094 436.441406 493.253906 434.609375 494.175781 C 432.78125 495.101562 430.914062 495.9375 429.003906 496.683594 C 427.097656 497.433594 425.15625 498.089844 423.1875 498.65625 C 421.21875 499.226562 419.226562 499.699219 417.210938 500.078125 C 415.199219 500.460938 413.171875 500.746094 411.128906 500.9375 C 409.089844 501.128906 407.042969 501.226562 404.996094 501.226562 C 402.945312 501.226562 400.898438 501.128906 398.859375 500.9375 C 396.820312 500.746094 394.792969 500.460938 392.777344 500.078125 C 390.761719 499.699219 388.773438 499.226562 386.800781 498.65625 C 384.832031 498.089844 382.894531 497.433594 380.984375 496.683594 C 379.078125 495.9375 377.207031 495.101562 375.378906 494.175781 C 373.550781 493.253906 371.765625 492.246094 370.03125 491.15625 C 368.292969 490.066406 366.613281 488.898438 364.988281 487.652344 C 363.359375 486.402344 361.796875 485.082031 360.292969 483.691406 C 358.789062 482.296875 357.355469 480.835938 355.988281 479.308594 C 354.621094 477.78125 353.332031 476.191406 352.113281 474.542969 C 350.894531 472.894531 349.757812 471.191406 348.699219 469.4375 C 347.640625 467.683594 346.664062 465.882812 345.773438 464.035156 C 344.882812 462.191406 344.082031 460.304688 343.367188 458.382812 C 342.652344 456.464844 342.03125 454.511719 341.5 452.535156 C 340.96875 450.554688 340.527344 448.554688 340.183594 446.535156 C 339.839844 444.511719 339.589844 442.480469 339.4375 440.4375 Z M 425.25 379.6875 L 445.5 379.6875 L 445.5 430.3125 L 425.25 430.3125 Z M 364.5 339.1875 L 384.75 339.1875 L 384.75 430.3125 L 364.5 430.3125 Z M 303.75 364.5 L 324 364.5 L 324 430.3125 L 303.75 430.3125 Z M 521.4375 455.625 L 508.152344 455.625 C 507.585938 455.625 507.035156 455.71875 506.5 455.902344 C 505.964844 456.089844 505.472656 456.355469 505.027344 456.707031 C 504.582031 457.058594 504.207031 457.46875 503.898438 457.945312 C 503.59375 458.421875 503.371094 458.9375 503.238281 459.488281 C 500.78125 469.523438 496.871094 478.957031 491.503906 487.785156 C 491.210938 488.269531 491.003906 488.789062 490.882812 489.34375 C 490.765625 489.898438 490.738281 490.453125 490.808594 491.015625 C 490.875 491.578125 491.03125 492.113281 491.28125 492.625 C 491.527344 493.132812 491.851562 493.589844 492.253906 493.988281 L 501.652344 503.390625 L 473.015625 532.027344 L 463.613281 522.628906 C 463.210938 522.226562 462.757812 521.902344 462.246094 521.65625 C 461.738281 521.40625 461.203125 521.25 460.640625 521.183594 C 460.074219 521.113281 459.519531 521.140625 458.964844 521.261719 C 458.410156 521.382812 457.890625 521.589844 457.40625 521.882812 C 448.578125 527.25 439.144531 531.160156 429.109375 533.609375 C 428.558594 533.742188 428.042969 533.964844 427.566406 534.269531 C 427.089844 534.578125 426.679688 534.957031 426.328125 535.402344 C 425.980469 535.847656 425.710938 536.339844 425.527344 536.875 C 425.339844 537.410156 425.25 537.960938 425.25 538.527344 L 425.25 551.8125 L 384.75 551.8125 L 384.75 538.527344 C 384.75 537.960938 384.660156 537.410156 384.472656 536.875 C 384.289062 536.339844 384.019531 535.847656 383.671875 535.402344 C 383.320312 534.957031 382.910156 534.578125 382.433594 534.269531 C 381.957031 533.964844 381.441406 533.742188 380.890625 533.609375 C 370.855469 531.160156 361.421875 527.25 352.59375 521.882812 C 352.109375 521.589844 351.589844 521.382812 351.035156 521.261719 C 350.480469 521.140625 349.921875 521.117188 349.359375 521.183594 C 348.796875 521.25 348.261719 521.40625 347.753906 521.65625 C 347.242188 521.902344 346.789062 522.226562 346.386719 522.628906 L 336.984375 532.027344 L 308.347656 503.390625 L 317.746094 493.988281 C 318.148438 493.589844 318.472656 493.132812 318.71875 492.625 C 318.96875 492.113281 319.125 491.578125 319.191406 491.015625 C 319.261719 490.453125 319.234375 489.898438 319.117188 489.34375 C 318.996094 488.789062 318.789062 488.269531 318.496094 487.785156 C 313.128906 478.957031 309.21875 469.523438 306.761719 459.488281 C 306.628906 458.9375 306.40625 458.421875 306.101562 457.945312 C 305.792969 457.46875 305.417969 457.058594 304.972656 456.707031 C 304.527344 456.355469 304.035156 456.089844 303.5 455.902344 C 302.964844 455.71875 302.414062 455.625 301.847656 455.625 L 288.5625 455.625 L 288.5625 440.4375 L 329.320312 440.4375 C 329.472656 442.816406 329.738281 445.179688 330.113281 447.53125 C 330.492188 449.882812 330.976562 452.210938 331.570312 454.519531 C 332.167969 456.824219 332.871094 459.097656 333.679688 461.339844 C 334.488281 463.578125 335.402344 465.777344 336.417969 467.929688 C 337.433594 470.085938 338.550781 472.1875 339.765625 474.234375 C 340.980469 476.285156 342.289062 478.273438 343.691406 480.199219 C 345.09375 482.125 346.582031 483.980469 348.160156 485.765625 C 349.734375 487.550781 351.390625 489.257812 353.128906 490.886719 C 354.867188 492.515625 356.679688 494.058594 358.5625 495.519531 C 360.445312 496.976562 362.390625 498.34375 364.402344 499.617188 C 366.414062 500.894531 368.484375 502.070312 370.605469 503.152344 C 372.730469 504.234375 374.898438 505.210938 377.113281 506.085938 C 379.328125 506.964844 381.578125 507.734375 383.867188 508.398438 C 386.152344 509.0625 388.46875 509.617188 390.808594 510.0625 C 393.148438 510.507812 395.503906 510.84375 397.875 511.066406 C 400.246094 511.289062 402.621094 511.402344 405.003906 511.402344 C 407.386719 511.402344 409.765625 511.289062 412.136719 511.066406 C 414.507812 510.84375 416.863281 510.507812 419.203125 510.0625 C 421.542969 509.617188 423.855469 509.0625 426.144531 508.398438 C 428.429688 507.734375 430.683594 506.964844 432.898438 506.085938 C 435.113281 505.210938 437.28125 504.234375 439.402344 503.152344 C 441.527344 502.070312 443.59375 500.894531 445.605469 499.617188 C 447.617188 498.34375 449.566406 496.976562 451.449219 495.519531 C 453.332031 494.058594 455.140625 492.515625 456.878906 490.886719 C 458.617188 489.257812 460.273438 487.550781 461.851562 485.765625 C 463.429688 483.980469 464.917969 482.125 466.320312 480.199219 C 467.722656 478.273438 469.03125 476.285156 470.246094 474.234375 C 471.460938 472.1875 472.574219 470.085938 473.589844 467.929688 C 474.609375 465.777344 475.519531 463.578125 476.332031 461.339844 C 477.140625 459.097656 477.84375 456.824219 478.4375 454.519531 C 479.035156 452.210938 479.519531 449.882812 479.894531 447.53125 C 480.273438 445.179688 480.535156 442.816406 480.6875 440.4375 L 521.4375 440.4375 Z M 521.4375 455.625 " fill-opacity="1" fill-rule="nonzero"/><path fill="#596b93" d="M 506.25 288.5625 L 506.25 253.125 C 506.25 252.792969 506.21875 252.464844 506.152344 252.136719 C 506.085938 251.8125 505.992188 251.496094 505.863281 251.1875 C 505.738281 250.878906 505.582031 250.589844 505.398438 250.3125 C 505.210938 250.035156 505.003906 249.78125 504.765625 249.546875 C 504.53125 249.308594 504.277344 249.101562 504 248.914062 C 503.722656 248.730469 503.433594 248.574219 503.125 248.449219 C 502.816406 248.320312 502.5 248.226562 502.175781 248.160156 C 501.847656 248.09375 501.519531 248.0625 501.1875 248.0625 L 465.75 248.0625 L 465.75 258.1875 L 489.578125 258.1875 L 434.765625 317.214844 L 377.664062 274.386719 C 377.203125 274.042969 376.703125 273.785156 376.15625 273.609375 C 375.609375 273.4375 375.050781 273.359375 374.476562 273.375 C 373.902344 273.390625 373.347656 273.503906 372.8125 273.707031 C 372.277344 273.914062 371.792969 274.199219 371.355469 274.570312 L 305.542969 330.257812 L 312.082031 337.992188 L 374.816406 284.90625 L 432.335938 328.050781 C 432.835938 328.425781 433.386719 328.699219 433.992188 328.871094 C 434.59375 329.042969 435.203125 329.101562 435.828125 329.042969 C 436.449219 328.988281 437.042969 328.824219 437.605469 328.546875 C 438.167969 328.273438 438.660156 327.90625 439.085938 327.449219 L 496.125 266.019531 L 496.125 288.5625 Z M 506.25 288.5625 " fill-opacity="1" fill-rule="nonzero"/></svg>