<svg xmlns="http://www.w3.org/2000/svg" xmlns:xlink="http://www.w3.org/1999/xlink" width="1080" zoomAndPan="magnify" viewBox="0 0 810 809.999993" height="1080" preserveAspectRatio="xMidYMid meet" version="1.0"><rect x="-81" width="972" fill="#ffffff" y="-80.999999" height="971.999992" fill-opacity="1"/><rect x="-81" width="972" fill="#ffffff" y="-80.999999" height="971.999992" fill-opacity="1"/><path fill="#596b93" d="M 462.449219 266.90625 C 430.929688 235.179688 379.652344 235.011719 347.925781 266.53125 C 316.195312 298.054688 316.027344 349.328125 347.550781 381.058594 C 362.816406 396.378906 371.347656 417.148438 371.257812 438.777344 L 371.257812 465.773438 C 371.257812 469.5 374.277344 472.519531 378.007812 472.519531 L 431.992188 472.519531 C 435.722656 472.519531 438.742188 469.5 438.742188 465.773438 L 438.742188 438.777344 C 439.023438 416.769531 447.855469 395.734375 463.367188 380.117188 C 493.875 348.402344 493.464844 298.125 462.449219 266.90625 Z M 453.644531 370.738281 C 435.695312 388.867188 425.511719 413.269531 425.246094 438.777344 L 425.246094 459.023438 L 384.753906 459.023438 L 384.753906 438.777344 C 384.855469 413.582031 374.910156 389.382812 357.121094 371.542969 C 346.480469 360.839844 339.738281 346.882812 337.96875 331.898438 C 333.601562 294.910156 360.046875 261.386719 397.035156 257.019531 C 417.050781 254.664062 437.070312 261.378906 451.621094 275.320312 C 478.527344 301.113281 479.433594 343.832031 453.644531 370.738281 Z M 453.644531 370.738281 " fill-opacity="1" fill-rule="nonzero"/><path fill="#596b93" d="M 357.761719 432.03125 L 452.238281 432.03125 L 452.238281 445.527344 L 357.761719 445.527344 Z M 357.761719 432.03125 " fill-opacity="1" fill-rule="nonzero"/><path fill="#596b93" d="M 447.46875 312.519531 L 424.386719 335.601562 L 408.746094 325.171875 C 406.476562 323.660156 403.523438 323.660156 401.253906 325.171875 L 385.613281 335.601562 L 362.53125 312.519531 L 352.988281 322.0625 L 379.984375 349.054688 C 382.257812 351.332031 385.824219 351.683594 388.5 349.898438 L 405 338.898438 L 421.5 349.914062 C 422.609375 350.652344 423.914062 351.046875 425.246094 351.046875 C 427.039062 351.042969 428.753906 350.328125 430.015625 349.054688 L 457.011719 322.0625 Z M 447.46875 312.519531 " fill-opacity="1" fill-rule="nonzero"/><path fill="#596b93" d="M 398.25 351.046875 L 411.75 351.046875 L 411.75 432.03125 L 398.25 432.03125 Z M 398.25 351.046875 " fill-opacity="1" fill-rule="nonzero"/><path fill="#596b93" d="M 411.75 530.300781 C 410.929688 508.753906 392.804688 491.949219 371.257812 492.765625 L 256.53125 492.765625 L 256.53125 270.0625 L 330.765625 270.0625 L 330.765625 256.566406 L 249.785156 256.566406 C 246.054688 256.566406 243.035156 259.589844 243.035156 263.316406 L 243.035156 499.515625 C 243.035156 503.242188 246.054688 506.261719 249.785156 506.261719 L 371.257812 506.261719 C 371.945312 506.234375 372.632812 506.234375 373.324219 506.261719 C 387.660156 506.832031 398.820312 518.917969 398.25 533.257812 L 411.75 533.257812 C 411.785156 532.273438 411.785156 531.285156 411.75 530.300781 Z M 411.75 530.300781 " fill-opacity="1" fill-rule="nonzero"/><path fill="#596b93" d="M 560.214844 256.566406 L 479.234375 256.566406 L 479.234375 270.0625 L 553.46875 270.0625 L 553.46875 492.765625 L 438.742188 492.765625 C 437.757812 492.726562 436.769531 492.726562 435.785156 492.765625 C 414.238281 493.582031 397.433594 511.710938 398.25 533.257812 L 411.75 533.257812 C 411.75 532.15625 412.058594 506.261719 438.742188 506.261719 L 560.214844 506.261719 C 563.945312 506.261719 566.964844 503.242188 566.964844 499.515625 L 566.964844 263.316406 C 566.964844 259.589844 563.945312 256.566406 560.214844 256.566406 Z M 560.214844 256.566406 " fill-opacity="1" fill-rule="nonzero"/><path fill="#596b93" d="M 431.992188 519.761719 C 428.265625 519.761719 425.246094 522.78125 425.246094 526.507812 L 425.246094 533.257812 C 425.246094 544.4375 416.179688 553.503906 405 553.503906 C 393.820312 553.503906 384.753906 544.4375 384.753906 533.257812 L 384.753906 526.507812 C 384.753906 522.78125 381.730469 519.761719 378.003906 519.761719 L 243.035156 519.761719 L 243.035156 533.257812 L 371.257812 533.257812 C 371.28125 551.882812 386.375 566.976562 405 567 C 423.625 566.976562 438.71875 551.882812 438.742188 533.257812 L 566.964844 533.257812 L 566.964844 519.761719 Z M 431.992188 519.761719 " fill-opacity="1" fill-rule="nonzero"/><path fill="#596b93" d="M 398.25 465.773438 L 411.75 465.773438 L 411.75 526.507812 L 398.25 526.507812 Z M 398.25 465.773438 " fill-opacity="1" fill-rule="nonzero"/><path fill="#596b93" d="M 290.273438 297.058594 L 303.773438 297.058594 L 303.773438 310.554688 L 290.273438 310.554688 Z M 290.273438 297.058594 " fill-opacity="1" fill-rule="nonzero"/><path fill="#596b93" d="M 290.273438 337.550781 L 303.773438 337.550781 L 303.773438 351.046875 L 290.273438 351.046875 Z M 290.273438 337.550781 " fill-opacity="1" fill-rule="nonzero"/><path fill="#596b93" d="M 310.519531 378.039062 L 324.015625 378.039062 L 324.015625 391.539062 L 310.519531 391.539062 Z M 310.519531 378.039062 " fill-opacity="1" fill-rule="nonzero"/><path fill="#596b93" d="M 270.027344 465.773438 L 330.765625 465.773438 L 330.765625 479.269531 L 270.027344 479.269531 Z M 270.027344 465.773438 " fill-opacity="1" fill-rule="nonzero"/><path fill="#596b93" d="M 270.027344 438.777344 L 303.773438 438.777344 L 303.773438 452.273438 L 270.027344 452.273438 Z M 270.027344 438.777344 " fill-opacity="1" fill-rule="nonzero"/><path fill="#596b93" d="M 270.027344 411.785156 L 290.273438 411.785156 L 290.273438 425.28125 L 270.027344 425.28125 Z M 270.027344 411.785156 " fill-opacity="1" fill-rule="nonzero"/><path fill="#596b93" d="M 506.226562 297.058594 L 519.726562 297.058594 L 519.726562 310.554688 L 506.226562 310.554688 Z M 506.226562 297.058594 " fill-opacity="1" fill-rule="nonzero"/><path fill="#596b93" d="M 506.226562 337.550781 L 519.726562 337.550781 L 519.726562 351.046875 L 506.226562 351.046875 Z M 506.226562 337.550781 " fill-opacity="1" fill-rule="nonzero"/><path fill="#596b93" d="M 485.984375 378.039062 L 499.480469 378.039062 L 499.480469 391.539062 L 485.984375 391.539062 Z M 485.984375 378.039062 " fill-opacity="1" fill-rule="nonzero"/><path fill="#596b93" d="M 479.234375 465.773438 L 539.972656 465.773438 L 539.972656 479.269531 L 479.234375 479.269531 Z M 479.234375 465.773438 " fill-opacity="1" fill-rule="nonzero"/><path fill="#596b93" d="M 506.226562 438.777344 L 539.972656 438.777344 L 539.972656 452.273438 L 506.226562 452.273438 Z M 506.226562 438.777344 " fill-opacity="1" fill-rule="nonzero"/><path fill="#596b93" d="M 519.726562 411.785156 L 539.972656 411.785156 L 539.972656 425.28125 L 519.726562 425.28125 Z M 519.726562 411.785156 " fill-opacity="1" fill-rule="nonzero"/></svg>